PathFileType	4	(X/Y/Z)	C:\Users\italobelli\Desktop\GitHub\PTbot_officialCBL\Personal_Results\FLX01_noisy1.trc
DataRate	CameraRate	NumFrames	NumMarkers	Units	OrigDataRate	OrigDataStartFrame	OrigNumFrames
106.533333	106.533333	17	9	m	106.533333	401	800
Frame#	Time		gu		centelbow		EpL		centpxt8		centijc7		ij		ts		aa		ai
			X1	Y1	Z1	X2	Y2	Z2	X3	Y3	Z3	X4	Y4	Z4	X5	Y5	Z5	X6	Y6	Z6	X7	Y7	Z7	X8	Y8	Z8	X9	Y9	Z9

401	3.7547	-0.10078	0.060895	0.09756	-0.0091043	0.28501	0.17865	-0.035799	0.29692	0.16449	-0.046816	-0.15316	-0.008669	-0.046816	0.031938	-0.008669	0	0	0	-0.14338	-0.0239	0.057302	-0.1369	0.084569	0.10668	-0.11544	-0.065773	0.15899
402	3.7641	-0.10081	0.060889	0.09764	-0.008211	0.28486	0.17874	-0.034897	0.29684	0.16461	-0.046816	-0.15316	-0.008669	-0.046816	0.031938	-0.008669	0	0	0	-0.14349	-0.023837	0.05727	-0.13689	0.08458	0.10675	-0.11557	-0.065822	0.15891
403	3.7735	-0.10085	0.060884	0.097722	-0.0072985	0.2847	0.17883	-0.033975	0.29675	0.16474	-0.046816	-0.15316	-0.008669	-0.046816	0.031938	-0.008669	0	0	0	-0.1436	-0.023773	0.057238	-0.13688	0.084591	0.10681	-0.11569	-0.065873	0.15883
404	3.7829	-0.10088	0.060879	0.097806	-0.0063673	0.28452	0.17892	-0.033033	0.29666	0.16487	-0.046816	-0.15316	-0.008669	-0.046816	0.031938	-0.008669	0	0	0	-0.14371	-0.023707	0.057206	-0.13687	0.084601	0.10688	-0.11582	-0.065927	0.15874
405	3.7922	-0.10091	0.060874	0.097892	-0.0054176	0.28434	0.17901	-0.032071	0.29656	0.165	-0.046816	-0.15316	-0.008669	-0.046816	0.031938	-0.008669	0	0	0	-0.14383	-0.02364	0.057174	-0.13686	0.084611	0.10695	-0.11594	-0.065983	0.15865
406	3.8016	-0.10094	0.060868	0.09798	-0.00445	0.28415	0.17911	-0.03109	0.29645	0.16514	-0.046816	-0.15316	-0.008669	-0.046816	0.031938	-0.008669	0	0	0	-0.14395	-0.023572	0.057141	-0.13684	0.084621	0.10702	-0.11607	-0.066041	0.15856
407	3.811	-0.10097	0.060863	0.09807	-0.0034648	0.28395	0.17921	-0.030089	0.29633	0.16529	-0.046816	-0.15316	-0.008669	-0.046816	0.031938	-0.008669	0	0	0	-0.14406	-0.023502	0.057108	-0.13682	0.084631	0.10709	-0.1162	-0.066102	0.15847
408	3.8204	-0.101	0.060858	0.098162	-0.0024625	0.28375	0.17931	-0.02907	0.29621	0.16543	-0.046816	-0.15316	-0.008669	-0.046816	0.031938	-0.008669	0	0	0	-0.14419	-0.02343	0.057076	-0.13681	0.084641	0.10716	-0.11634	-0.066166	0.15838
409	3.8298	-0.10103	0.060853	0.098255	-0.0014434	0.28353	0.17941	-0.028033	0.29609	0.16558	-0.046816	-0.15316	-0.008669	-0.046816	0.031938	-0.008669	0	0	0	-0.14431	-0.023357	0.057043	-0.13678	0.084651	0.10724	-0.11647	-0.066232	0.15829
410	3.8392	-0.10106	0.060848	0.09835	-0.00040809	0.28331	0.17952	-0.026978	0.29595	0.16574	-0.046816	-0.15316	-0.008669	-0.046816	0.031938	-0.008669	0	0	0	-0.14443	-0.023283	0.05701	-0.13676	0.08466	0.10732	-0.11661	-0.066301	0.15819
411	3.8486	-0.10109	0.060842	0.098447	0.00064314	0.28308	0.17962	-0.025905	0.29582	0.1659	-0.046816	-0.15316	-0.008669	-0.046816	0.031938	-0.008669	0	0	0	-0.14455	-0.023208	0.056977	-0.13674	0.084669	0.1074	-0.11674	-0.066372	0.1581
412	3.8579	-0.10112	0.060838	0.098545	0.0017099	0.28284	0.17973	-0.024815	0.29567	0.16606	-0.046816	-0.15316	-0.008669	-0.046816	0.031938	-0.008669	0	0	0	-0.14468	-0.023131	0.056945	-0.13671	0.084678	0.10748	-0.11688	-0.066445	0.158
413	3.8673	-0.10115	0.060833	0.098645	0.0027916	0.2826	0.17984	-0.023709	0.29552	0.16622	-0.046816	-0.15316	-0.008669	-0.046816	0.031938	-0.008669	0	0	0	-0.14481	-0.023052	0.056912	-0.13668	0.084687	0.10756	-0.11702	-0.066522	0.1579
414	3.8767	-0.10118	0.060828	0.098746	0.003888	0.28235	0.17996	-0.022585	0.29537	0.1664	-0.046816	-0.15316	-0.008669	-0.046816	0.031938	-0.008669	0	0	0	-0.14493	-0.022973	0.056879	-0.13664	0.084696	0.10764	-0.11716	-0.066601	0.1578
415	3.8861	-0.1012	0.060823	0.098849	0.0049987	0.28209	0.18007	-0.021446	0.29521	0.16657	-0.046816	-0.15316	-0.008669	-0.046816	0.031938	-0.008669	0	0	0	-0.14506	-0.022892	0.056847	-0.13661	0.084705	0.10773	-0.1173	-0.066682	0.1577
416	3.8955	-0.10123	0.060819	0.098953	0.0061231	0.28183	0.18019	-0.020291	0.29504	0.16675	-0.046816	-0.15316	-0.008669	-0.046816	0.031938	-0.008669	0	0	0	-0.14519	-0.02281	0.056814	-0.13657	0.084714	0.10781	-0.11744	-0.066766	0.1576
417	3.9049	-0.10126	0.060815	0.099059	0.007261	0.28156	0.18031	-0.01912	0.29487	0.16693	-0.046816	-0.15316	-0.008669	-0.046816	0.031938	-0.008669	0	0	0	-0.14532	-0.022727	0.056782	-0.13653	0.084722	0.1079	-0.11758	-0.066853	0.1575
